<?xml version="1.0" encoding="utf-8"?>
<!-- Generator: Adobe Illustrator 28.3.0, SVG Export Plug-In . SVG Version: 6.00 Build 0)  -->
<svg version="1.1" id="Layer_2" xmlns="http://www.w3.org/2000/svg" xmlns:xlink="http://www.w3.org/1999/xlink" x="0px" y="0px"
	 viewBox="0 0 175.18 175.18" style="enable-background:new 0 0 175.18 175.18;" xml:space="preserve">
<style type="text/css">
	.st0{fill:none;stroke:#000000;stroke-miterlimit:10;}
	.st1{fill:#020202;stroke:#000000;stroke-miterlimit:10;}
	.st2{fill:none;stroke:#FFFFFF;stroke-miterlimit:10;}
	.st3{fill:#FFFFFF;}
	.st4{font-family:'BerlinSansFB-Reg';}
	.st5{font-size:10.4749px;}
</style>
<path class="st0" d="M12.58,91.56"/>
<path class="st1" d="M34.88,19.06v134.02c0,1.8,1.36,3.26,3.05,3.26h99.54c1.68,0,3.05-1.46,3.05-3.26V19.06
	c0-2.62-2.74-4.17-4.76-2.69L89.42,50.25c-1.04,0.76-2.4,0.76-3.43,0L39.65,16.37C37.63,14.89,34.88,16.44,34.88,19.06z"/>
<path class="st2" d="M37.79,21.66v128.31c0,1.67,1.26,3.02,2.82,3.02h92.28c2.96,0,4.99-0.85,4.99-2.53V22.2
	c0-1.05-1.62-3.25-4.06-0.83L88.36,54.62c-0.96,0.7-2.22,0.7-3.18,0l-46.08-33.7C38.54,20.52,37.79,20.94,37.79,21.66z"/>
<text transform="matrix(1 0 0 1 50.5986 139.2031)" class="st3 st4 st5">MIGUEL GOMEZ</text>
<path class="st2" d="M104.74,79.03c0,0,3.8-2.04,4.73-9.47c0,0-2.15,3.58-5.45,4.46c0,0,2.2-8.81,0-11.67c0,0-2.31,12.88-4.02,14.2
	c0,0-3.47,9.19-21.08,15.14c0,0-15.08,3.74-16.41,12.83c0,0-1.87,5.12,3.14,2.31c0,0,10.13-3.58,13.32-14.64
	c0,0,2.64-15.3-2.7-17.95c0,0,9.08,0,11.23,3.69c0,0,1.38,1.87,1.16,6.28"/>
<polyline class="st2" points="61.51,109.92 59.64,113.56 63.66,111.74 "/>
<path class="st2" d="M67.14,110.74c0,0,2.42,2.97,9.96,0.33c0,0,14.2-3.69,21.08-18.66c0,0,2.97-7.27,2.2-10.29"/>
<path class="st2" d="M91.2,104.57c0,0,4.24-1.65,7.27,3.58c0,0,11.62-2.64,16.57,9.74c0,0-3.19-3.19-6.94-1.82
	c0,0-6.15,2.41-12.01,1.15c-1.06-0.23-2.12-0.44-3.19-0.53c-2.93-0.24-8.98-1.09-10.67-4.13"/>
</svg>
