<?xml version="1.0" encoding="utf-8"?>
<!-- Generator: Adobe Illustrator 28.3.0, SVG Export Plug-In . SVG Version: 6.00 Build 0)  -->
<svg version="1.1" id="Layer_2" xmlns="http://www.w3.org/2000/svg" xmlns:xlink="http://www.w3.org/1999/xlink" x="0px" y="0px"
	 viewBox="0 0 175.18 175.18" style="enable-background:new 0 0 175.18 175.18;" xml:space="preserve">
<style type="text/css">
	.st0{fill:none;stroke:#000000;stroke-miterlimit:10;}
	.st1{fill:none;}
	.st2{font-family:'BerlinSansFB-Reg';}
	.st3{font-size:17.4974px;}
</style>
<path class="st0" d="M12.58,91.56"/>
<rect x="28.6" y="125.75" class="st1" width="123.1" height="18.86"/>
<text transform="matrix(1 0 0 1 28.6051 137.8451)" class="st2 st3">MIGUEL GOMEZ</text>
<path class="st0" d="M112.45,52.24c0,0,5.65-3.03,7.04-14.07c0,0-3.19,5.32-8.1,6.63c0,0,3.27-13.09,0-17.35
	c0,0-3.44,19.15-5.97,21.11c0,0-5.16,13.67-31.34,22.5c0,0-22.42,5.56-24.39,19.07c0,0-2.78,7.61,4.66,3.44
	c0,0,15.06-5.32,19.8-21.77c0,0,3.93-22.75-4.01-26.68c0,0,13.5,0,16.69,5.48c0,0,2.05,2.78,1.72,9.33"/>
<polyline class="st0" points="49.69,96.67 46.9,102.07 52.88,99.37 "/>
<path class="st0" d="M56.56,99.37c0,0,3.6,4.42,14.81,0.49c0,0,21.11-5.48,31.34-27.74c0,0,4.42-10.8,3.27-15.3"/>
<path class="st0" d="M92.32,90.2c0,0,6.3-2.45,10.8,5.32c0,0,17.27-3.93,24.63,14.48c0,0-4.75-4.75-10.31-2.7
	c0,0-9.15,3.58-17.85,1.71c-1.57-0.34-3.15-0.65-4.75-0.78c-4.35-0.35-13.34-1.62-15.86-6.13"/>
</svg>
